<svg xmlns="http://www.w3.org/2000/svg" viewBox="0 0 1024 512">
  <defs>
    <style>
      .a {
        fill: #3fa9f5;
      }
    </style>
  </defs>
  <title>whim</title>
  <g>
    <path class="a" d="M655.9,339.75l73.76-168.88h1.72a1.52,1.52,0,0,1,1.72,1.72l30.67,157.16a20.61,20.61,0,0,1,.69,5.34,36.07,36.07,0,0,1,2.07-5.34l69.62-157.16c0.34-1.15.92-1.72,1.72-1.72h1.72L872,339.75h-1.72a2.64,2.64,0,0,1-2.76-2.41l-29-154.75q-0.34-1.9-.52-3.53t-0.35-3.53q-1.2,3.27-2.93,7.07L766.19,339.06a2.07,2.07,0,0,1-2.07,1.72h-0.69q-1.38,0-1.38-1.72L731.73,182.59q-0.34-1.9-.52-3.53t-0.35-3.36q-0.86,1.72-1.64,3.36t-1.64,3.53L661.07,337.34q-1.2,2.41-3.1,2.41H655.9Z"/>
    <path class="a" d="M632.12,171l-11.37,94.37a201,201,0,0,1-16.8,30.47A137.21,137.21,0,0,1,584.56,319a82.24,82.24,0,0,1-20.85,14.64,49,49,0,0,1-21.2,5.08q-10,0-16.8-4.05a27.37,27.37,0,0,1-10.6-11.72,52.2,52.2,0,0,1-4.74-18.7,119,119,0,0,1,.77-24.73L515.85,240h-3.79l-4.71,39.52a131.49,131.49,0,0,0-.69,26.5c0.69,7.81,2.41,14.31,5.17,19.71A28.5,28.5,0,0,0,523.56,338c5.06,2.81,11.26,4.2,18.61,4.2a53.14,53.14,0,0,0,21.71-4.84,82.59,82.59,0,0,0,20.94-13.71,125.1,125.1,0,0,0,19-21.46,160.69,160.69,0,0,0,15.85-28.1L602.14,419h3.79l30-248h-3.79Z"/>
    <polygon class="a" points="641.25 93.64 637.48 125.13 641.25 125.13 645.14 93.68 641.25 93.64"/>
    <polygon class="a" points="382.75 418.36 386.51 386.87 382.75 386.87 378.86 418.32 382.75 418.36"/>
    <path class="a" d="M508.89,189.05a52.25,52.25,0,0,1,4.74,18.7,119.87,119.87,0,0,1-.78,24.82L508.4,270h3.79l4.45-37.43a131.87,131.87,0,0,0,.69-26.54c-0.69-7.81-2.41-14.33-5.17-19.73A28.53,28.53,0,0,0,500.44,174c-5.06-2.81-11.26-4.2-18.61-4.2a53.12,53.12,0,0,0-21.71,4.84,82.56,82.56,0,0,0-20.94,13.71,125.12,125.12,0,0,0-19,21.46,160.81,160.81,0,0,0-15.85,28.1L421.86,93h-3.79l-30,248h3.79l11.37-94.37a200.93,200.93,0,0,1,16.8-30.47A137.21,137.21,0,0,1,439.44,193a82.19,82.19,0,0,1,20.85-14.64,49,49,0,0,1,21.2-5.08q10,0,16.8,4.05A27.37,27.37,0,0,1,508.89,189.05Z"/>
    <path class="a" d="M368.1,172.25L294.34,341.13h-1.72a1.52,1.52,0,0,1-1.72-1.72L260.22,182.25a20.56,20.56,0,0,1-.69-5.34,36,36,0,0,1-2.07,5.34L187.84,339.41q-0.52,1.73-1.72,1.72H184.4L152,172.25h1.72a2.64,2.64,0,0,1,2.76,2.41l29,154.75q0.34,1.9.52,3.53t0.34,3.53q1.2-3.27,2.93-7.07l68.59-156.47a2.07,2.07,0,0,1,2.07-1.72h0.69c0.92,0,1.38.58,1.38,1.72l30.33,156.47q0.34,1.9.52,3.53t0.34,3.36q0.86-1.72,1.64-3.36t1.64-3.53l66.52-154.75q1.2-2.41,3.1-2.41h2.07Z"/>
  </g>
</svg>
