<?xml version="1.0" encoding="utf-8"?>
<!-- Generator: Adobe Illustrator 19.2.0, SVG Export Plug-In . SVG Version: 6.00 Build 0)  -->
<svg version="1.1" id="Layer_1" xmlns="http://www.w3.org/2000/svg" xmlns:xlink="http://www.w3.org/1999/xlink" x="0px" y="0px"
	 viewBox="0 0 1024 512" style="enable-background:new 0 0 1024 512;" xml:space="preserve">
<style type="text/css">
	.st0{fill:#29ABE2;}
</style>
<g>
	<path class="st0" d="M655.9,339.7l73.8-168.9h1.7c1.2,0,1.7,0.6,1.7,1.7l30.7,157.2c0.5,1.7,0.7,3.5,0.7,5.3
		c0.5-1.6,1.2-3.4,2.1-5.3l69.6-157.2c0.3-1.2,0.9-1.7,1.7-1.7h1.7L872,339.7h-1.7c-1.5,0-2.4-0.8-2.8-2.4l-29-154.8
		c-0.2-1.3-0.4-2.4-0.5-3.5c-0.1-1.1-0.2-2.3-0.3-3.5c-0.8,2.2-1.8,4.5-2.9,7.1l-68.6,156.5c-0.3,1.1-1,1.7-2.1,1.7h-0.7
		c-0.9,0-1.4-0.6-1.4-1.7l-30.3-156.5c-0.2-1.3-0.4-2.4-0.5-3.5c-0.1-1.1-0.2-2.2-0.3-3.4c-0.6,1.1-1.1,2.3-1.6,3.4
		c-0.5,1.1-1.1,2.3-1.6,3.5l-66.5,154.8c-0.8,1.6-1.8,2.4-3.1,2.4H655.9z"/>
	<path class="st0" d="M632.1,171l-11.4,94.4c-5.1,11.3-10.7,21.4-16.8,30.5c-6.1,9.1-12.6,16.8-19.4,23.2
		c-6.8,6.4-13.7,11.2-20.9,14.6c-7.1,3.4-14.2,5.1-21.2,5.1c-6.7,0-12.3-1.4-16.8-4.1c-4.5-2.7-8.1-6.6-10.6-11.7
		c-2.5-5.1-4.1-11.3-4.7-18.7c-0.6-7.4-0.4-15.3,0.8-24.7l4.7-39.5h-3.8l-4.7,39.5c-1.1,10-1.4,18.7-0.7,26.5
		c0.7,7.8,2.4,14.3,5.2,19.7c2.8,5.4,6.7,9.5,11.7,12.3c5.1,2.8,11.3,4.2,18.6,4.2c7.2,0,14.5-1.6,21.7-4.8
		c7.2-3.2,14.2-7.8,20.9-13.7c6.7-5.9,13.1-13.1,19-21.5c6-8.4,11.3-17.8,15.9-28.1L602.1,419h3.8l30-248H632.1z"/>
	<polygon class="st0" points="641.2,93.6 637.5,125.1 641.2,125.1 645.1,93.7 	"/>
	<polygon class="st0" points="382.8,418.4 386.5,386.9 382.8,386.9 378.9,418.3 	"/>
	<path class="st0" d="M508.9,189.1c2.5,5.1,4.1,11.3,4.7,18.7c0.6,7.4,0.4,15.4-0.8,24.8l-4.5,37.4h3.8l4.5-37.4
		c1.1-10,1.4-18.7,0.7-26.5c-0.7-7.8-2.4-14.3-5.2-19.7c-2.8-5.4-6.7-9.5-11.7-12.3c-5.1-2.8-11.3-4.2-18.6-4.2
		c-7.2,0-14.5,1.6-21.7,4.8c-7.2,3.2-14.2,7.8-20.9,13.7c-6.7,5.9-13.1,13.1-19,21.5c-6,8.4-11.3,17.8-15.9,28.1L421.9,93h-3.8
		l-30,248h3.8l11.4-94.4c5.1-11.3,10.7-21.4,16.8-30.5c6.1-9.1,12.6-16.8,19.4-23.2c6.8-6.4,13.7-11.2,20.9-14.6
		c7.1-3.4,14.2-5.1,21.2-5.1c6.7,0,12.3,1.4,16.8,4.1C502.8,180,506.4,183.9,508.9,189.1z"/>
	<path class="st0" d="M368.1,172.3l-73.8,168.9h-1.7c-1.2,0-1.7-0.6-1.7-1.7l-30.7-157.2c-0.5-1.7-0.7-3.5-0.7-5.3
		c-0.5,1.6-1.2,3.4-2.1,5.3l-69.6,157.2c-0.3,1.2-0.9,1.7-1.7,1.7h-1.7L152,172.3h1.7c1.5,0,2.4,0.8,2.8,2.4l29,154.7
		c0.2,1.3,0.4,2.4,0.5,3.5c0.1,1.1,0.2,2.3,0.3,3.5c0.8-2.2,1.8-4.5,2.9-7.1l68.6-156.5c0.3-1.1,1-1.7,2.1-1.7h0.7
		c0.9,0,1.4,0.6,1.4,1.7l30.3,156.5c0.2,1.3,0.4,2.4,0.5,3.5c0.1,1.1,0.2,2.2,0.3,3.4c0.6-1.1,1.1-2.3,1.6-3.4
		c0.5-1.1,1.1-2.3,1.6-3.5l66.5-154.7c0.8-1.6,1.8-2.4,3.1-2.4H368.1z"/>
</g>
</svg>
